<?xml version="1.0" encoding="UTF-8" standalone="no" ?>
<!DOCTYPE svg PUBLIC "-//W3C//DTD SVG 1.1//EN" "http://www.w3.org/Graphics/SVG/1.1/DTD/svg11.dtd">
<svg xmlns="http://www.w3.org/2000/svg" xmlns:xlink="http://www.w3.org/1999/xlink" version="1.1" width="423.81250071525574" height="148.25" xml:space="preserve">
<desc>Created with Fabric.js 1.6.0-rc.1</desc>
<defs></defs>
<g style="stroke: none; stroke-width: 1; stroke-dasharray: none; stroke-linecap: butt; stroke-linejoin: miter; stroke-miterlimit: 10; fill: none; fill-rule: nonzero; opacity: 1;" transform="translate(10 10) scale(0.25 0.25)" >
  <path d="M 213.64 237.003 c -4.16 -2.334 -5.672 -7.551 -3.427 -11.74 l -22.923 -12.734 c -1.624 2.725 -4.511 4.267 -7.496 4.267 c -1.441 0 -2.907 -0.358 -4.254 -1.109 l -38.096 -21.316 c -4.083 -2.292 -5.61 -7.357 -3.544 -11.504 l -22.947 -12.749 c -1.647 2.583 -4.45 4.045 -7.351 4.045 c -1.441 0 -2.907 -0.358 -4.254 -1.109 l -34.154 -19.11 v 213.361 l 182.262 -111.382 L 213.64 237.003 z" style="stroke: none; stroke-width: 1; stroke-dasharray: none; stroke-linecap: butt; stroke-linejoin: miter; stroke-miterlimit: 10; fill: #FF6469; fill-rule: nonzero; opacity: 1;" transform=" matrix(1 0 0 1 0 0) " stroke-linecap="round" />
  <path d="M 408.398 174.162 c -2.901 0 -5.704 -1.461 -7.351 -4.045 l -22.947 12.749 c 2.066 4.147 0.539 9.212 -3.544 11.504 l -38.096 21.316 c -1.347 0.751 -2.814 1.109 -4.254 1.109 c -2.985 0 -5.872 -1.542 -7.496 -4.267 l -22.923 12.734 c 2.244 4.189 0.732 9.406 -3.427 11.74 l -33.814 18.919 l 182.261 111.382 V 153.943 l -34.154 19.11 C 411.306 173.804 409.84 174.162 408.398 174.162 z" style="stroke: none; stroke-width: 1; stroke-dasharray: none; stroke-linecap: butt; stroke-linejoin: miter; stroke-miterlimit: 10; fill: #B4E173; fill-rule: nonzero; opacity: 1;" transform=" matrix(1 0 0 1 0 0) " stroke-linecap="round" />
  <path d="M 111.228 169.694 c -0.084 0.15 -0.186 0.281 -0.276 0.423 l 22.947 12.749 c 0.063 -0.127 0.119 -0.256 0.189 -0.382 c 2.349 -4.204 7.674 -5.712 11.882 -3.359 l 38.096 21.316 c 4.207 2.362 5.712 7.674 3.355 11.886 c -0.039 0.071 -0.089 0.131 -0.131 0.201 l 22.923 12.734 c 0.026 -0.048 0.046 -0.098 0.072 -0.146 c 2.344 -4.204 7.662 -5.712 11.882 -3.359 l 33.833 18.931 V 38.691 L 74.849 139.331 l 33.023 18.478 C 112.081 160.171 113.586 165.483 111.228 169.694 z" style="stroke: none; stroke-width: 1; stroke-dasharray: none; stroke-linecap: butt; stroke-linejoin: miter; stroke-miterlimit: 10; fill: #FFCD73; fill-rule: nonzero; opacity: 1;" transform=" matrix(1 0 0 1 0 0) " stroke-linecap="round" />
  <path d="M 256.001 450.882 v -26.193 c -4.822 0 -8.731 -3.905 -8.731 -8.731 v -43.656 c 0 -4.826 3.909 -8.731 8.731 -8.731 v -26.193 c -4.822 0 -8.731 -3.905 -8.731 -8.731 V 284.99 c 0 -4.826 3.909 -8.731 8.731 -8.731 v -16.831 c -0.003 0 -0.005 0 -0.009 0 c -0.372 0 -0.747 -0.026 -1.119 -0.074 c -0.026 -0.003 -0.052 -0.011 -0.079 -0.015 c -0.344 -0.048 -0.688 -0.114 -1.027 -0.204 c -0.064 -0.017 -0.126 -0.044 -0.189 -0.062 c -0.296 -0.085 -0.589 -0.179 -0.88 -0.297 c -0.092 -0.037 -0.179 -0.087 -0.27 -0.128 c -0.232 -0.104 -0.466 -0.203 -0.692 -0.329 l -4.283 -2.397 L 65.192 367.304 l 182.076 101.154 v -8.845 C 247.269 454.787 251.179 450.882 256.001 450.882 z" style="stroke: none; stroke-width: 1; stroke-dasharray: none; stroke-linecap: butt; stroke-linejoin: miter; stroke-miterlimit: 10; fill: #870d19; fill-rule: nonzero; opacity: 1;" transform=" matrix(1 0 0 1 0 0) " stroke-linecap="round" />
  <path d="M 260.264 258.32 c -0.226 0.126 -0.46 0.225 -0.692 0.329 c -0.091 0.04 -0.177 0.091 -0.27 0.128 c -0.289 0.118 -0.584 0.212 -0.88 0.297 c -0.063 0.019 -0.126 0.045 -0.189 0.062 c -0.341 0.091 -0.683 0.156 -1.027 0.204 c -0.026 0.003 -0.052 0.011 -0.079 0.015 c -0.373 0.048 -0.747 0.074 -1.119 0.074 c -0.003 0 -0.005 0 -0.009 0 v 16.831 c 4.822 0 8.731 3.905 8.731 8.731 v 43.656 c 0 4.826 -3.909 8.731 -8.731 8.731 v 26.193 c 4.822 0 8.731 3.905 8.731 8.731 v 43.656 c 0 4.826 -3.909 8.731 -8.731 8.731 v 26.193 c 4.822 0 8.731 3.905 8.731 8.731 v 8.845 l 182.076 -101.154 L 264.546 255.923 L 260.264 258.32 z" style="stroke: none; stroke-width: 1; stroke-dasharray: none; stroke-linecap: butt; stroke-linejoin: miter; stroke-miterlimit: 10; fill: #A0C869; fill-rule: nonzero; opacity: 1;" transform=" matrix(1 0 0 1 0 0) " stroke-linecap="round" />
  <path d="M 289.834 221.758 c 4.216 -2.344 9.528 -0.844 11.882 3.359 c 0.027 0.048 0.046 0.097 0.072 0.146 l 22.923 -12.734 c -0.041 -0.069 -0.092 -0.13 -0.131 -0.201 c -2.357 -4.212 -0.852 -9.525 3.355 -11.886 l 38.096 -21.316 c 4.207 -2.344 9.525 -0.836 11.882 3.359 c 0.07 0.126 0.126 0.254 0.189 0.382 l 22.947 -12.749 c -0.091 -0.142 -0.193 -0.274 -0.276 -0.423 c -2.357 -4.212 -0.852 -9.525 3.355 -11.886 l 33.023 -18.478 l -181.15 -100.64 v 201.997 L 289.834 221.758 z" style="stroke: none; stroke-width: 1; stroke-dasharray: none; stroke-linecap: butt; stroke-linejoin: miter; stroke-miterlimit: 10; fill: #262019; fill-rule: nonzero; opacity: 1;" transform=" matrix(1 0 0 1 0 0) " stroke-linecap="round" />
  <path d="M 241.155 26.961 l 14.845 -8.245 l 14.845 8.245 c 1.342 0.751 2.797 1.1 4.229 1.1 c 3.07 0 6.045 -1.62 7.64 -4.493 c 2.344 -4.212 0.823 -9.532 -3.393 -11.869 L 260.24 1.1 c -2.635 -1.467 -5.841 -1.467 -8.476 0 l -19.082 10.599 c -4.216 2.337 -5.739 7.657 -3.393 11.869 C 231.623 27.788 236.939 29.322 241.155 26.961 z" style="stroke: none; stroke-width: 1; stroke-dasharray: none; stroke-linecap: butt; stroke-linejoin: miter; stroke-miterlimit: 10; fill: #1964fa; fill-rule: nonzero; opacity: 1;" transform=" matrix(1 0 0 1 0 0) " stroke-linecap="round" />
  <path d="M 165.393 67.803 c 1.433 0 2.89 -0.349 4.234 -1.1 l 35.768 -19.875 c 4.212 -2.344 5.734 -7.657 3.389 -11.869 c -2.337 -4.212 -7.648 -5.747 -11.873 -3.393 l -35.768 19.875 c -4.212 2.344 -5.734 7.657 -3.389 11.869 C 159.348 66.183 162.323 67.803 165.393 67.803 z" style="stroke: none; stroke-width: 1; stroke-dasharray: none; stroke-linecap: butt; stroke-linejoin: miter; stroke-miterlimit: 10; fill: #1964fa; fill-rule: nonzero; opacity: 1;" transform=" matrix(1 0 0 1 0 0) " stroke-linecap="round" />
  <path d="M 93.86 107.545 c 1.433 0 2.89 -0.349 4.234 -1.1 l 35.768 -19.875 c 4.212 -2.344 5.734 -7.657 3.389 -11.869 c -2.341 -4.212 -7.648 -5.747 -11.873 -3.393 L 89.609 91.183 c -4.212 2.344 -5.734 7.657 -3.389 11.869 C 87.815 105.925 90.791 107.545 93.86 107.545 z" style="stroke: none; stroke-width: 1; stroke-dasharray: none; stroke-linecap: butt; stroke-linejoin: miter; stroke-miterlimit: 10; fill: #1964fa; fill-rule: nonzero; opacity: 1;" transform=" matrix(1 0 0 1 0 0) " stroke-linecap="round" />
  <path d="M 39 159.838 c 4.822 0 8.731 -3.905 8.731 -8.731 V 134.42 l 14.589 -8.109 c 4.212 -2.337 5.734 -7.657 3.389 -11.869 c -2.337 -4.212 -7.657 -5.747 -11.873 -3.393 l -19.078 10.599 c -2.771 1.535 -4.489 4.459 -4.489 7.631 v 21.828 C 30.269 155.933 34.178 159.838 39 159.838 z" style="stroke: none; stroke-width: 1; stroke-dasharray: none; stroke-linecap: butt; stroke-linejoin: miter; stroke-miterlimit: 10; fill: #1964fa; fill-rule: nonzero; opacity: 1;" transform=" matrix(1 0 0 1 0 0) " stroke-linecap="round" />
  <path d="M 39 327.666 c 4.822 0 8.731 -3.905 8.731 -8.731 v -41.959 c 0 -4.826 -3.909 -8.731 -8.731 -8.731 s -8.731 3.905 -8.731 8.731 v 41.959 C 30.269 323.76 34.178 327.666 39 327.666 z" style="stroke: none; stroke-width: 1; stroke-dasharray: none; stroke-linecap: butt; stroke-linejoin: miter; stroke-miterlimit: 10; fill: #1964fa; fill-rule: nonzero; opacity: 1;" transform=" matrix(1 0 0 1 0 0) " stroke-linecap="round" />
  <path d="M 39 243.756 c 4.822 0 8.731 -3.905 8.731 -8.731 v -41.959 c 0 -4.826 -3.909 -8.731 -8.731 -8.731 s -8.731 3.905 -8.731 8.731 v 41.959 C 30.269 239.851 34.178 243.756 39 243.756 z" style="stroke: none; stroke-width: 1; stroke-dasharray: none; stroke-linecap: butt; stroke-linejoin: miter; stroke-miterlimit: 10; fill: #1964fa; fill-rule: nonzero; opacity: 1;" transform=" matrix(1 0 0 1 0 0) " stroke-linecap="round" />
  <path d="M 62.321 385.689 l -14.589 -8.109 v -16.695 c 0 -4.826 -3.909 -8.731 -8.731 -8.731 s -8.731 3.905 -8.731 8.731 v 21.828 c 0 3.172 1.718 6.088 4.489 7.631 l 19.078 10.607 c 1.342 0.751 2.797 1.1 4.234 1.1 c 3.07 0 6.045 -1.62 7.64 -4.485 C 68.054 393.345 66.537 388.033 62.321 385.689 z" style="stroke: none; stroke-width: 1; stroke-dasharray: none; stroke-linecap: butt; stroke-linejoin: miter; stroke-miterlimit: 10; fill: #1964fa; fill-rule: nonzero; opacity: 1;" transform=" matrix(1 0 0 1 0 0) " stroke-linecap="round" />
  <path d="M 205.39 465.173 l -35.768 -19.875 c -4.22 -2.353 -9.528 -0.819 -11.873 3.393 c -2.345 4.212 -0.823 9.525 3.389 11.869 l 35.768 19.875 c 1.342 0.751 2.801 1.1 4.234 1.1 c 3.07 0 6.045 -1.62 7.64 -4.493 C 211.125 472.829 209.603 467.517 205.39 465.173 z" style="stroke: none; stroke-width: 1; stroke-dasharray: none; stroke-linecap: butt; stroke-linejoin: miter; stroke-miterlimit: 10; fill: #1964fa; fill-rule: nonzero; opacity: 1;" transform=" matrix(1 0 0 1 0 0) " stroke-linecap="round" />
  <path d="M 133.857 425.431 l -35.768 -19.875 c -4.22 -2.353 -9.537 -0.819 -11.873 3.393 c -2.344 4.212 -0.823 9.525 3.389 11.869 l 35.768 19.875 c 1.342 0.751 2.801 1.1 4.234 1.1 c 3.07 0 6.045 -1.62 7.64 -4.493 C 139.591 433.087 138.07 427.775 133.857 425.431 z" style="stroke: none; stroke-width: 1; stroke-dasharray: none; stroke-linecap: butt; stroke-linejoin: miter; stroke-miterlimit: 10; fill: #1964fa; fill-rule: nonzero; opacity: 1;" transform=" matrix(1 0 0 1 0 0) " stroke-linecap="round" />
  <path d="M 270.845 485.039 l -14.845 8.245 l -14.845 -8.245 c -4.216 -2.353 -9.532 -0.819 -11.869 3.393 c -2.344 4.212 -0.823 9.532 3.393 11.869 L 251.76 510.9 c 1.317 0.733 2.775 1.1 4.238 1.1 s 2.921 -0.367 4.238 -1.1 l 19.082 -10.599 c 4.216 -2.337 5.739 -7.657 3.393 -11.869 S 275.061 482.686 270.845 485.039 z" style="stroke: none; stroke-width: 1; stroke-dasharray: none; stroke-linecap: butt; stroke-linejoin: miter; stroke-miterlimit: 10; fill: #1964fa; fill-rule: nonzero; opacity: 1;" transform=" matrix(1 0 0 1 0 0) " stroke-linecap="round" />
  <path d="M 413.907 405.555 l -35.765 19.875 c -4.216 2.344 -5.734 7.657 -3.389 11.869 c 1.595 2.874 4.571 4.493 7.64 4.493 c 1.433 0 2.89 -0.349 4.234 -1.1 l 35.765 -19.875 c 4.216 -2.344 5.734 -7.657 3.389 -11.869 C 423.439 404.737 418.131 403.202 413.907 405.555 z" style="stroke: none; stroke-width: 1; stroke-dasharray: none; stroke-linecap: butt; stroke-linejoin: miter; stroke-miterlimit: 10; fill: #1964fa; fill-rule: nonzero; opacity: 1;" transform=" matrix(1 0 0 1 0 0) " stroke-linecap="round" />
  <path d="M 342.373 445.297 l -35.768 19.875 c -4.212 2.344 -5.734 7.657 -3.389 11.869 c 1.595 2.874 4.571 4.493 7.64 4.493 c 1.433 0 2.89 -0.349 4.234 -1.1 l 35.768 -19.875 c 4.212 -2.344 5.734 -7.657 3.389 -11.869 C 351.91 444.479 346.594 442.944 342.373 445.297 z" style="stroke: none; stroke-width: 1; stroke-dasharray: none; stroke-linecap: butt; stroke-linejoin: miter; stroke-miterlimit: 10; fill: #1964fa; fill-rule: nonzero; opacity: 1;" transform=" matrix(1 0 0 1 0 0) " stroke-linecap="round" />
  <path d="M 473 352.153 c -4.822 0 -8.731 3.905 -8.731 8.731 v 16.695 l -14.589 8.109 c -4.216 2.344 -5.734 7.657 -3.389 11.878 c 1.595 2.865 4.571 4.485 7.64 4.485 c 1.436 0 2.89 -0.349 4.234 -1.1 l 19.078 -10.607 c 2.771 -1.543 4.489 -4.459 4.489 -7.631 v -21.828 C 481.731 356.058 477.822 352.153 473 352.153 z" style="stroke: none; stroke-width: 1; stroke-dasharray: none; stroke-linecap: butt; stroke-linejoin: miter; stroke-miterlimit: 10; fill: #1964fa; fill-rule: nonzero; opacity: 1;" transform=" matrix(1 0 0 1 0 0) " stroke-linecap="round" />
  <path d="M 473 184.334 c -4.822 0 -8.731 3.905 -8.731 8.731 v 41.959 c 0 4.826 3.909 8.731 8.731 8.731 s 8.731 -3.905 8.731 -8.731 v -41.959 C 481.731 188.24 477.822 184.334 473 184.334 z" style="stroke: none; stroke-width: 1; stroke-dasharray: none; stroke-linecap: butt; stroke-linejoin: miter; stroke-miterlimit: 10; fill: #1964fa; fill-rule: nonzero; opacity: 1;" transform=" matrix(1 0 0 1 0 0) " stroke-linecap="round" />
  <path d="M 473 268.244 c -4.822 0 -8.731 3.905 -8.731 8.731 v 41.959 c 0 4.826 3.909 8.731 8.731 8.731 s 8.731 -3.905 8.731 -8.731 v -41.959 C 481.731 272.149 477.822 268.244 473 268.244 z" style="stroke: none; stroke-width: 1; stroke-dasharray: none; stroke-linecap: butt; stroke-linejoin: miter; stroke-miterlimit: 10; fill: #1964fa; fill-rule: nonzero; opacity: 1;" transform=" matrix(1 0 0 1 0 0) " stroke-linecap="round" />
  <path d="M 477.241 121.648 l -19.078 -10.599 c -4.216 -2.353 -9.532 -0.819 -11.873 3.393 c -2.344 4.212 -0.823 9.532 3.389 11.869 l 14.589 8.109 v 16.686 c 0 4.826 3.909 8.731 8.731 8.731 s 8.731 -3.905 8.731 -8.731 v -21.828 C 481.731 126.107 480.012 123.182 477.241 121.648 z" style="stroke: none; stroke-width: 1; stroke-dasharray: none; stroke-linecap: butt; stroke-linejoin: miter; stroke-miterlimit: 10; fill: #1964fa; fill-rule: nonzero; opacity: 1;" transform=" matrix(1 0 0 1 0 0) " stroke-linecap="round" />
  <path d="M 306.61 46.827 l 35.768 19.875 c 1.342 0.751 2.801 1.1 4.234 1.1 c 3.07 0 6.045 -1.62 7.64 -4.493 c 2.344 -4.212 0.823 -9.525 -3.389 -11.869 l -35.768 -19.875 c -4.22 -2.353 -9.537 -0.819 -11.873 3.393 C 300.875 39.171 302.397 44.483 306.61 46.827 z" style="stroke: none; stroke-width: 1; stroke-dasharray: none; stroke-linecap: butt; stroke-linejoin: miter; stroke-miterlimit: 10; fill: #1964fa; fill-rule: nonzero; opacity: 1;" transform=" matrix(1 0 0 1 0 0) " stroke-linecap="round" />
  <path d="M 378.143 86.569 l 35.768 19.875 c 1.342 0.751 2.801 1.1 4.234 1.1 c 3.07 0 6.045 -1.62 7.64 -4.493 c 2.344 -4.212 0.823 -9.525 -3.389 -11.869 l -35.769 -19.875 c -4.216 -2.353 -9.537 -0.819 -11.873 3.393 C 372.409 78.913 373.93 84.225 378.143 86.569 z" style="stroke: none; stroke-width: 1; stroke-dasharray: none; stroke-linecap: butt; stroke-linejoin: miter; stroke-miterlimit: 10; fill: #1964fa; fill-rule: nonzero; opacity: 1;" transform=" matrix(1 0 0 1 0 0) " stroke-linecap="round" />
  <path d="M 57.895 139.852 c -2.357 4.212 -0.852 9.525 3.355 11.886 l 3.942 2.206 l 34.154 19.11 c 1.347 0.751 2.814 1.109 4.254 1.109 c 2.901 0 5.704 -1.461 7.351 -4.045 c 0.091 -0.142 0.193 -0.274 0.276 -0.423 c 2.357 -4.212 0.852 -9.525 -3.355 -11.886 l -33.023 -18.478 l -5.073 -2.839 C 65.56 134.148 60.239 135.648 57.895 139.852 z" style="stroke: none; stroke-width: 1; stroke-dasharray: none; stroke-linecap: butt; stroke-linejoin: miter; stroke-miterlimit: 10; fill: #FFFFFF; fill-rule: nonzero; opacity: 1;" transform=" matrix(1 0 0 1 0 0) " stroke-linecap="round" />
  <path d="M 137.444 194.371 l 38.096 21.316 c 1.347 0.751 2.814 1.109 4.254 1.109 c 2.985 0 5.872 -1.542 7.496 -4.267 c 0.041 -0.069 0.092 -0.13 0.131 -0.201 c 2.357 -4.212 0.852 -9.525 -3.355 -11.886 l -38.096 -21.316 c -4.207 -2.353 -9.532 -0.844 -11.882 3.359 c -0.07 0.126 -0.126 0.254 -0.189 0.382 C 131.834 187.014 133.361 192.079 137.444 194.371 z" style="stroke: none; stroke-width: 1; stroke-dasharray: none; stroke-linecap: butt; stroke-linejoin: miter; stroke-miterlimit: 10; fill: #FFFFFF; fill-rule: nonzero; opacity: 1;" transform=" matrix(1 0 0 1 0 0) " stroke-linecap="round" />
  <path d="M 213.64 237.003 l 33.814 18.919 l 4.283 2.397 c 0.226 0.126 0.459 0.225 0.692 0.329 c 0.091 0.04 0.177 0.091 0.27 0.128 c 0.289 0.118 0.584 0.212 0.88 0.297 c 0.063 0.019 0.126 0.045 0.189 0.062 c 0.341 0.091 0.683 0.156 1.027 0.204 c 0.026 0.003 0.052 0.011 0.079 0.015 c 0.373 0.048 0.747 0.074 1.119 0.074 c 0.003 0 0.005 0 0.009 0 s 0.005 0 0.009 0 c 0.372 0 0.747 -0.026 1.119 -0.074 c 0.026 -0.003 0.052 -0.011 0.079 -0.015 c 0.344 -0.048 0.688 -0.114 1.027 -0.204 c 0.064 -0.017 0.126 -0.044 0.189 -0.062 c 0.296 -0.085 0.589 -0.179 0.88 -0.297 c 0.092 -0.037 0.179 -0.087 0.27 -0.128 c 0.232 -0.104 0.466 -0.203 0.692 -0.329 l 4.283 -2.397 l 33.814 -18.919 c 4.16 -2.334 5.672 -7.551 3.427 -11.74 c -0.026 -0.048 -0.046 -0.098 -0.072 -0.146 c -2.353 -4.204 -7.665 -5.705 -11.882 -3.359 l -33.833 18.931 l -33.833 -18.931 c -4.22 -2.353 -9.537 -0.844 -11.882 3.359 c -0.027 0.048 -0.046 0.097 -0.072 0.146 C 207.968 229.451 209.48 234.668 213.64 237.003 z" style="stroke: none; stroke-width: 1; stroke-dasharray: none; stroke-linecap: butt; stroke-linejoin: miter; stroke-miterlimit: 10; fill: #FFFFFF; fill-rule: nonzero; opacity: 1;" transform=" matrix(1 0 0 1 0 0) " stroke-linecap="round" />
  <path d="M 332.206 216.796 c 1.441 0 2.907 -0.358 4.254 -1.109 l 38.096 -21.316 c 4.083 -2.292 5.61 -7.357 3.544 -11.504 c -0.063 -0.127 -0.119 -0.256 -0.189 -0.382 c -2.357 -4.195 -7.674 -5.705 -11.882 -3.359 l -38.096 21.316 c -4.207 2.362 -5.712 7.674 -3.355 11.886 c 0.039 0.071 0.09 0.131 0.131 0.201 C 326.334 215.253 329.22 216.796 332.206 216.796 z" style="stroke: none; stroke-width: 1; stroke-dasharray: none; stroke-linecap: butt; stroke-linejoin: miter; stroke-miterlimit: 10; fill: #FFFFFF; fill-rule: nonzero; opacity: 1;" transform=" matrix(1 0 0 1 0 0) " stroke-linecap="round" />
  <path d="M 400.772 169.694 c 0.084 0.15 0.186 0.281 0.276 0.423 c 1.647 2.583 4.45 4.045 7.351 4.045 c 1.441 0 2.907 -0.358 4.254 -1.109 l 34.154 -19.11 l 3.942 -2.206 c 4.207 -2.362 5.712 -7.674 3.355 -11.886 c -2.353 -4.204 -7.669 -5.696 -11.882 -3.359 l -5.073 2.839 l -33.023 18.478 C 399.919 160.171 398.414 165.483 400.772 169.694 z" style="stroke: none; stroke-width: 1; stroke-dasharray: none; stroke-linecap: butt; stroke-linejoin: miter; stroke-miterlimit: 10; fill: #FFFFFF; fill-rule: nonzero; opacity: 1;" transform=" matrix(1 0 0 1 0 0) " stroke-linecap="round" />
  <path d="M 247.269 284.99 v 43.656 c 0 4.826 3.909 8.731 8.731 8.731 c 4.822 0 8.731 -3.905 8.731 -8.731 V 284.99 c 0 -4.826 -3.909 -8.731 -8.731 -8.731 C 251.179 276.259 247.269 280.164 247.269 284.99 z" style="stroke: none; stroke-width: 1; stroke-dasharray: none; stroke-linecap: butt; stroke-linejoin: miter; stroke-miterlimit: 10; fill: #FFFFFF; fill-rule: nonzero; opacity: 1;" transform=" matrix(1 0 0 1 0 0) " stroke-linecap="round" />
  <path d="M 247.269 372.302 v 43.656 c 0 4.826 3.909 8.731 8.731 8.731 c 4.822 0 8.731 -3.905 8.731 -8.731 v -43.656 c 0 -4.826 -3.909 -8.731 -8.731 -8.731 C 251.179 363.57 247.269 367.475 247.269 372.302 z" style="stroke: none; stroke-width: 1; stroke-dasharray: none; stroke-linecap: butt; stroke-linejoin: miter; stroke-miterlimit: 10; fill: #FFFFFF; fill-rule: nonzero; opacity: 1;" transform=" matrix(1 0 0 1 0 0) " stroke-linecap="round" />
  <path d="M 256.001 450.882 c -4.822 0 -8.731 3.905 -8.731 8.731 v 8.845 v 2.068 c 0 4.826 3.909 8.731 8.731 8.731 c 4.822 0 8.731 -3.905 8.731 -8.731 v -2.068 v -8.845 C 264.732 454.787 260.821 450.882 256.001 450.882 z" style="stroke: none; stroke-width: 1; stroke-dasharray: none; stroke-linecap: butt; stroke-linejoin: miter; stroke-miterlimit: 10; fill: #FFFFFF; fill-rule: nonzero; opacity: 1;" transform=" matrix(1 0 0 1 0 0) " stroke-linecap="round" />
</g>
  <g transform="translate(246.59 80.84) scale(1.06 1)">
   <text font-family="zwodrei - free" font-size="40" font-weight="bold" style="stroke: none; stroke-width: 1; stroke-dasharray: none; stroke-linecap: butt; stroke-linejoin: miter; stroke-miterlimit: 10; fill: #cc2525; fill-rule: nonzero; opacity: 1;" ><tspan x="-104.77" y="8.98" style="stroke: none; stroke-width: 0; stroke-dasharray: none; stroke-linecap: butt; stroke-linejoin: miter; stroke-miterlimit: 4; fill: #cc2525; fill-rule: ; opacity: 1;">M</tspan><tspan x="-70.69" y="8.98" style="stroke: none; stroke-width: 0; stroke-dasharray: none; stroke-linecap: butt; stroke-linejoin: miter; stroke-miterlimit: 4; fill: #cc2525; fill-rule: ; opacity: 1;">i</tspan><tspan x="-59.08" y="8.98" style="stroke: none; stroke-width: 0; stroke-dasharray: none; stroke-linecap: butt; stroke-linejoin: miter; stroke-miterlimit: 4; fill: #cc2525; fill-rule: ; opacity: 1;">l</tspan><tspan x="-44.92" y="8.98" style="stroke: none; stroke-width: 0; stroke-dasharray: none; stroke-linecap: butt; stroke-linejoin: miter; stroke-miterlimit: 4; fill: #cc2525; fill-rule: ; opacity: 1;">l</tspan><tspan x="-30.75" y="8.98" style="stroke: none; stroke-width: 0; stroke-dasharray: none; stroke-linecap: butt; stroke-linejoin: miter; stroke-miterlimit: 4; fill: #cc2525; fill-rule: ; opacity: 1;">a</tspan><tspan x="-10.23" y="8.98" style="stroke: none; stroke-width: 0; stroke-dasharray: none; stroke-linecap: butt; stroke-linejoin: miter; stroke-miterlimit: 4; fill: #cc2525; fill-rule: ; opacity: 1;">t</tspan><tspan x="5.73" y="8.98" style="stroke: none; stroke-width: 0; stroke-dasharray: none; stroke-linecap: butt; stroke-linejoin: miter; stroke-miterlimit: 4; fill: #cc2525; fill-rule: ; opacity: 1;"> </tspan><tspan x="16.12" y="8.98" style="stroke: none; stroke-width: 0; stroke-dasharray: none; stroke-linecap: butt; stroke-linejoin: miter; stroke-miterlimit: 4; fill: #cc2525; fill-rule: ; opacity: 1;">H</tspan><tspan x="43.87" y="8.98" style="stroke: none; stroke-width: 0; stroke-dasharray: none; stroke-linecap: butt; stroke-linejoin: miter; stroke-miterlimit: 4; fill: #cc2525; fill-rule: ; opacity: 1;">u</tspan><tspan x="66.52" y="8.98" style="stroke: none; stroke-width: 0; stroke-dasharray: none; stroke-linecap: butt; stroke-linejoin: miter; stroke-miterlimit: 4; fill: #cc2525; fill-rule: ; opacity: 1;">s</tspan><tspan x="85.65" y="8.98" style="stroke: none; stroke-width: 0; stroke-dasharray: none; stroke-linecap: butt; stroke-linejoin: miter; stroke-miterlimit: 4; fill: #cc2525; fill-rule: ; opacity: 1;">s</tspan></text>
 </g>
<g style="stroke: none; stroke-width: 1; stroke-dasharray: none; stroke-linecap: butt; stroke-linejoin: miter; stroke-miterlimit: 10; fill: none; fill-rule: nonzero; opacity: 1;" transform="translate(43 42.129999999999995) scale(0.13 0.13)" >
  <path d="M 361.6 92.4 c 0 -12.4 -10 -22.8 -23.2 -22.8 H 31.2 C 17.6 69.6 6 79.6 6 92.4 v 182.4 c 0 12.4 12 22.8 25.2 22.8 h 307.2 c 13.6 0 23.2 -10 23.2 -22.8 V 92.4 z" style="stroke: none; stroke-width: 1; stroke-dasharray: none; stroke-linecap: butt; stroke-linejoin: miter; stroke-miterlimit: 10; fill: #61C2AB; fill-rule: nonzero; opacity: 1;" transform=" matrix(1 0 0 1 0 0) " stroke-linecap="round" />
  <path d="M 113.6 130.8 c 0 -9.6 -7.6 -17.2 -17.2 -17.2 H 50.8 c -9.6 0 -17.2 7.6 -17.2 17.2 v 25.6 c 0 9.6 7.6 17.2 17.2 17.2 h 45.6 c 9.6 0 17.2 -7.6 17.2 -17.2 V 130.8 z" style="stroke: none; stroke-width: 1; stroke-dasharray: none; stroke-linecap: butt; stroke-linejoin: miter; stroke-miterlimit: 10; fill: #CDEEF9; fill-rule: nonzero; opacity: 1;" transform=" matrix(1 0 0 1 0 0) " stroke-linecap="round" />
  <rect x="33.6" y="229.6" rx="0" ry="0" width="64" height="20" style="stroke: none; stroke-width: 1; stroke-dasharray: none; stroke-linecap: butt; stroke-linejoin: miter; stroke-miterlimit: 10; fill: #F4EFEF; fill-rule: nonzero; opacity: 1;" transform=" matrix(1 0 0 1 0 0) "/>
  <polygon points="194.8,229.6 194.8,230 195.6,229.6 " style="stroke: none; stroke-width: 1; stroke-dasharray: none; stroke-linecap: butt; stroke-linejoin: miter; stroke-miterlimit: 10; fill: #CCCCCC; fill-rule: nonzero; opacity: 1;" transform="  matrix(1 0 0 1 0 0) "/>
  <rect x="113.6" y="229.6" rx="0" ry="0" width="60" height="20" style="stroke: none; stroke-width: 1; stroke-dasharray: none; stroke-linecap: butt; stroke-linejoin: miter; stroke-miterlimit: 10; fill: #F4EFEF; fill-rule: nonzero; opacity: 1;" transform=" matrix(1 0 0 1 0 0) "/>
  <path d="M 282 128.8 c 0.8 -1.6 2 -2.8 3.2 -4 c -5.6 -5.6 -13.2 -9.6 -21.6 -9.6 c -16.4 0 -30 13.6 -30 30 s 13.6 30 30 30 c 3.6 0 7.2 -0.8 10.4 -2 l 11.2 -7.6 l 0 0 c -5.2 -5.2 -8 -12.4 -8 -20.4 C 277.2 139.2 278.8 133.6 282 128.8 z" style="stroke: none; stroke-width: 1; stroke-dasharray: none; stroke-linecap: butt; stroke-linejoin: miter; stroke-miterlimit: 10; fill: #DF5C4E; fill-rule: nonzero; opacity: 1;" transform=" matrix(1 0 0 1 0 0) " stroke-linecap="round" />
  <path d="M 285.2 124.4 c -1.2 1.2 -2.4 2.8 -3.2 4 c -3.2 4.8 -4.8 10.4 -4.8 16.4 c 0 8 3.2 15.2 8 20.4 c 5.2 -5.2 8 -12.4 8 -20.4 C 293.6 137.2 290.4 130 285.2 124.4 z" style="stroke: none; stroke-width: 1; stroke-dasharray: none; stroke-linecap: butt; stroke-linejoin: miter; stroke-miterlimit: 10; fill: #EF934A; fill-rule: nonzero; opacity: 1;" transform=" matrix(1 0 0 1 0 0) " stroke-linecap="round" />
  <path d="M 307.2 115.2 c -4.4 0 -8.4 0.8 -12 2.4 l -10 6.8 l 0 0 c 5.2 5.2 8 12.4 8 20.4 s -3.2 15.2 -8 20.4 c 3.2 3.2 6.8 6 11.2 7.6 c 3.2 1.2 6.8 2 10.4 2 c 14.4 0 26.8 -10.4 29.2 -24.4 c 0.4 -2 0.4 -3.6 0.4 -5.6 C 337.2 128.4 323.6 115.2 307.2 115.2 z" style="stroke: none; stroke-width: 1; stroke-dasharray: none; stroke-linecap: butt; stroke-linejoin: miter; stroke-miterlimit: 10; fill: #F0C960; fill-rule: nonzero; opacity: 1;" transform=" matrix(1 0 0 1 0 0) " stroke-linecap="round" />
  <polygon points="253.6,249.6 253.6,229.6 191.6,229.6 189.6,230 189.6,249.6 " style="stroke: none; stroke-width: 1; stroke-dasharray: none; stroke-linecap: butt; stroke-linejoin: miter; stroke-miterlimit: 10; fill: #F4EFEF; fill-rule: nonzero; opacity: 1;" transform="  matrix(1 0 0 1 0 0) "/>
  <rect x="269.6" y="229.6" rx="0" ry="0" width="64" height="20" style="stroke: none; stroke-width: 1; stroke-dasharray: none; stroke-linecap: butt; stroke-linejoin: miter; stroke-miterlimit: 10; fill: #F4EFEF; fill-rule: nonzero; opacity: 1;" transform=" matrix(1 0 0 1 0 0) "/>
  <path d="M 409.2 133.6 h -47.6 v 140 c 0 12.4 -11.2 24 -23.6 24 H 73.6 v 43.2 c 0 12.4 9.2 24.8 21.6 24.8 h 313.6 c 12.4 0 24.4 -12.4 24.4 -24.8 V 157.6 C 433.6 145.2 421.6 133.6 409.2 133.6 z" style="stroke: none; stroke-width: 1; stroke-dasharray: none; stroke-linecap: butt; stroke-linejoin: miter; stroke-miterlimit: 10; fill: #4BB19B; fill-rule: nonzero; opacity: 1;" transform=" matrix(1 0 0 1 0 0) " stroke-linecap="round" />
  <rect x="105.6" y="297.6" rx="0" ry="0" width="64" height="20" style="stroke: none; stroke-width: 1; stroke-dasharray: none; stroke-linecap: butt; stroke-linejoin: miter; stroke-miterlimit: 10; fill: #F4EFEF; fill-rule: nonzero; opacity: 1;" transform=" matrix(1 0 0 1 0 0) "/>
  <path d="M 472.4 201.6 h -39.6 l 0.8 0.8 v 138.4 c 0 12.4 -12 24.8 -24.4 24.8 H 140.4 l 1.6 -1.6 v 44.4 c 0 12.4 8.4 21.6 20.8 21.6 h 309.6 c 12.4 0 25.2 -8.8 25.2 -21.6 V 225.2 C 497.6 212.4 484.8 201.6 472.4 201.6 z" style="stroke: none; stroke-width: 1; stroke-dasharray: none; stroke-linecap: butt; stroke-linejoin: miter; stroke-miterlimit: 10; fill: #13A289; fill-rule: nonzero; opacity: 1;" transform=" matrix(1 0 0 1 0 0) " stroke-linecap="round" />
  <rect x="185.6" y="297.6" rx="0" ry="0" width="64" height="20" style="stroke: none; stroke-width: 1; stroke-dasharray: none; stroke-linecap: butt; stroke-linejoin: miter; stroke-miterlimit: 10; fill: #F4EFEF; fill-rule: nonzero; opacity: 1;" transform=" matrix(1 0 0 1 0 0) "/>
  <rect x="261.6" y="297.6" rx="0" ry="0" width="64" height="20" style="stroke: none; stroke-width: 1; stroke-dasharray: none; stroke-linecap: butt; stroke-linejoin: miter; stroke-miterlimit: 10; fill: #F4EFEF; fill-rule: nonzero; opacity: 1;" transform=" matrix(1 0 0 1 0 0) "/>
  <rect x="341.6" y="297.6" rx="0" ry="0" width="64" height="20" style="stroke: none; stroke-width: 1; stroke-dasharray: none; stroke-linecap: butt; stroke-linejoin: miter; stroke-miterlimit: 10; fill: #F4EFEF; fill-rule: nonzero; opacity: 1;" transform=" matrix(1 0 0 1 0 0) "/>
  <path d="M 471.2 279.2 c 0 -16.4 -12.4 -30 -29.2 -30 c -3.2 0 -8.8 0.4 -8.8 1.6 v 56.8 c 0 1.2 5.2 1.6 8.8 1.6 C 458.8 309.2 471.2 296 471.2 279.2 z" style="stroke: none; stroke-width: 1; stroke-dasharray: none; stroke-linecap: butt; stroke-linejoin: miter; stroke-miterlimit: 10; fill: #F0C960; fill-rule: nonzero; opacity: 1;" transform=" matrix(1 0 0 1 0 0) " stroke-linecap="round" />
  <path d="M 374 182 c -3.6 0 -8.4 1.2 -12.4 2.4 v 54.8 c 0 0 1.2 0.4 1.6 0.4 c 3.2 1.2 6.8 2 10.8 2 c 14.4 0 26.8 -10.4 29.6 -24 c 0.4 -2 0.4 -4 0.4 -6 C 404 195.6 390.4 182 374 182 z" style="stroke: none; stroke-width: 1; stroke-dasharray: none; stroke-linecap: butt; stroke-linejoin: miter; stroke-miterlimit: 10; fill: #F0C960; fill-rule: nonzero; opacity: 1;" transform=" matrix(1 0 0 1 0 0) " stroke-linecap="round" />
  <rect x="173.6" y="365.6" rx="0" ry="0" width="64" height="20" style="stroke: none; stroke-width: 1; stroke-dasharray: none; stroke-linecap: butt; stroke-linejoin: miter; stroke-miterlimit: 10; fill: #F4EFEF; fill-rule: nonzero; opacity: 1;" transform=" matrix(1 0 0 1 0 0) "/>
  <rect x="249.6" y="365.6" rx="0" ry="0" width="64" height="20" style="stroke: none; stroke-width: 1; stroke-dasharray: none; stroke-linecap: butt; stroke-linejoin: miter; stroke-miterlimit: 10; fill: #F4EFEF; fill-rule: nonzero; opacity: 1;" transform=" matrix(1 0 0 1 0 0) "/>
  <rect x="329.6" y="365.6" rx="0" ry="0" width="64" height="20" style="stroke: none; stroke-width: 1; stroke-dasharray: none; stroke-linecap: butt; stroke-linejoin: miter; stroke-miterlimit: 10; fill: #F4EFEF; fill-rule: nonzero; opacity: 1;" transform=" matrix(1 0 0 1 0 0) "/>
  <rect x="409.6" y="365.6" rx="0" ry="0" width="64" height="20" style="stroke: none; stroke-width: 1; stroke-dasharray: none; stroke-linecap: butt; stroke-linejoin: miter; stroke-miterlimit: 10; fill: #F4EFEF; fill-rule: nonzero; opacity: 1;" transform=" matrix(1 0 0 1 0 0) "/>
  <path d="M 336.8 303.6 h -310 C 12 303.6 0 291.6 0 276.8 v -186 C 0 76 12 64 26.8 64 h 310 c 14.8 0 26.8 12 26.8 26.8 v 186 C 363.6 291.6 351.6 303.6 336.8 303.6 z M 26.4 71.6 C 16 71.6 7.6 80 7.6 90.4 v 186 c 0 10.4 8.4 18.8 18.8 18.8 h 310 c 10.4 0 18.8 -8.4 18.8 -18.8 v -186 c 0 -10.4 -8.4 -18.8 -18.8 -18.8 H 26.4 z" style="stroke: none; stroke-width: 1; stroke-dasharray: none; stroke-linecap: butt; stroke-linejoin: miter; stroke-miterlimit: 10; fill: rgb(0,0,0); fill-rule: nonzero; opacity: 1;" transform=" matrix(1 0 0 1 0 0) " stroke-linecap="round" />
  <path d="M 260.4 177.2 c -18.8 0 -34 -15.2 -34 -34 s 15.2 -34 34 -34 s 34 15.2 34 34 c 0 8.8 -3.2 17.2 -9.2 23.2 c -1.6 1.6 -4 1.6 -5.6 0 s -1.6 -4 0 -5.6 c 4.4 -4.8 7.2 -11.2 7.2 -18 c 0 -14.4 -11.6 -26 -26 -26 s -26 11.6 -26 26 s 11.6 26 26 26 c 3.2 0 6.4 -0.4 9.2 -1.6 c 2 -0.8 4.4 0.4 5.2 2.4 s -0.4 4.4 -2.4 5.2 C 268.8 176.4 264.8 177.2 260.4 177.2 z" style="stroke: none; stroke-width: 1; stroke-dasharray: none; stroke-linecap: butt; stroke-linejoin: miter; stroke-miterlimit: 10; fill: rgb(0,0,0); fill-rule: nonzero; opacity: 1;" transform=" matrix(1 0 0 1 0 0) " stroke-linecap="round" />
  <path d="M 304.4 177.2 c -18.8 0 -34 -15.2 -34 -34 c 0 -6.8 2 -13.2 5.6 -18.4 c 1.2 -1.6 2.4 -3.2 3.6 -4.8 c 1.6 -1.6 4 -1.6 5.6 0 s 1.6 4 0 5.6 c -1.2 1.2 -2 2.4 -2.8 3.6 c -2.8 4.4 -4 9.2 -4 14 c 0 14.4 11.6 26 26 26 s 26 -11.6 26 -26 s -11.6 -26 -26 -26 c -3.6 0 -7.2 0.8 -10.4 2 c -2 0.8 -4.4 0 -5.2 -2 s 0 -4.4 2 -5.2 c 4.4 -2 8.8 -2.8 13.6 -2.8 c 18.8 0 34 15.2 34 34 S 323.2 177.2 304.4 177.2 z" style="stroke: none; stroke-width: 1; stroke-dasharray: none; stroke-linecap: butt; stroke-linejoin: miter; stroke-miterlimit: 10; fill: rgb(0,0,0); fill-rule: nonzero; opacity: 1;" transform=" matrix(1 0 0 1 0 0) " stroke-linecap="round" />
  <path d="M 94.4 179.6 H 48.8 c -11.6 0 -21.2 -9.6 -21.2 -21.2 v -25.6 c 0 -11.6 9.6 -21.2 21.2 -21.2 h 45.6 c 11.6 0 21.2 9.6 21.2 21.2 v 25.6 C 115.6 170 106 179.6 94.4 179.6 z M 48.8 119.6 c -7.2 0 -13.2 6 -13.2 13.2 v 25.6 c 0 7.2 6 13.2 13.2 13.2 h 45.6 c 7.2 0 13.2 -6 13.2 -13.2 v -25.6 c 0 -7.2 -6 -13.2 -13.2 -13.2 H 48.8 z" style="stroke: none; stroke-width: 1; stroke-dasharray: none; stroke-linecap: butt; stroke-linejoin: miter; stroke-miterlimit: 10; fill: rgb(0,0,0); fill-rule: nonzero; opacity: 1;" transform=" matrix(1 0 0 1 0 0) " stroke-linecap="round" />
  <path d="M 95.6 255.6 h -64 c -2.4 0 -4 -1.6 -4 -4 v -20 c 0 -2.4 1.6 -4 4 -4 h 64 c 2.4 0 4 1.6 4 4 v 20 C 99.6 254 98 255.6 95.6 255.6 z M 35.6 247.6 h 56 v -12 h -56 V 247.6 z" style="stroke: none; stroke-width: 1; stroke-dasharray: none; stroke-linecap: butt; stroke-linejoin: miter; stroke-miterlimit: 10; fill: rgb(0,0,0); fill-rule: nonzero; opacity: 1;" transform=" matrix(1 0 0 1 0 0) " stroke-linecap="round" />
  <path d="M 89.6 159.6 h -56 c -2.4 0 -4 -1.6 -4 -4 s 1.6 -4 4 -4 h 56 c 2.4 0 4 1.6 4 4 S 92 159.6 89.6 159.6 z" style="stroke: none; stroke-width: 1; stroke-dasharray: none; stroke-linecap: butt; stroke-linejoin: miter; stroke-miterlimit: 10; fill: rgb(0,0,0); fill-rule: nonzero; opacity: 1;" transform=" matrix(1 0 0 1 0 0) " stroke-linecap="round" />
  <path d="M 89.6 139.6 h -56 c -2.4 0 -4 -1.6 -4 -4 s 1.6 -4 4 -4 h 56 c 2.4 0 4 1.6 4 4 S 92 139.6 89.6 139.6 z" style="stroke: none; stroke-width: 1; stroke-dasharray: none; stroke-linecap: butt; stroke-linejoin: miter; stroke-miterlimit: 10; fill: rgb(0,0,0); fill-rule: nonzero; opacity: 1;" transform=" matrix(1 0 0 1 0 0) " stroke-linecap="round" />
  <path d="M 175.6 255.6 h -64 c -2.4 0 -4 -1.6 -4 -4 v -20 c 0 -2.4 1.6 -4 4 -4 h 64 c 2.4 0 4 1.6 4 4 v 20 C 179.6 254 178 255.6 175.6 255.6 z M 115.6 247.6 h 56 v -12 h -56 V 247.6 z" style="stroke: none; stroke-width: 1; stroke-dasharray: none; stroke-linecap: butt; stroke-linejoin: miter; stroke-miterlimit: 10; fill: rgb(0,0,0); fill-rule: nonzero; opacity: 1;" transform=" matrix(1 0 0 1 0 0) " stroke-linecap="round" />
  <path d="M 251.6 255.6 h -60 c -2.4 0 -4 -1.6 -4 -4 v -20 c 0 -2.4 1.6 -4 4 -4 h 60 c 2.4 0 4 1.6 4 4 v 20 C 255.6 254 254 255.6 251.6 255.6 z M 195.6 247.6 h 52 v -12 h -52 V 247.6 z" style="stroke: none; stroke-width: 1; stroke-dasharray: none; stroke-linecap: butt; stroke-linejoin: miter; stroke-miterlimit: 10; fill: rgb(0,0,0); fill-rule: nonzero; opacity: 1;" transform=" matrix(1 0 0 1 0 0) " stroke-linecap="round" />
  <path d="M 331.6 255.6 h -64 c -2.4 0 -4 -1.6 -4 -4 v -20 c 0 -2.4 1.6 -4 4 -4 h 64 c 2.4 0 4 1.6 4 4 v 20 C 335.6 254 334 255.6 331.6 255.6 z M 271.6 247.6 h 56 v -12 h -56 V 247.6 z" style="stroke: none; stroke-width: 1; stroke-dasharray: none; stroke-linecap: butt; stroke-linejoin: miter; stroke-miterlimit: 10; fill: rgb(0,0,0); fill-rule: nonzero; opacity: 1;" transform=" matrix(1 0 0 1 0 0) " stroke-linecap="round" />
  <path d="M 410.8 367.6 H 96 c -14.8 0 -28 -13.2 -28 -28 v -38 c 0 -2.4 1.6 -4 4 -4 s 4 1.6 4 4 v 38 c 0 10.4 9.6 20 20 20 h 314.8 c 11.2 0 16.8 -10.4 16.8 -20 v -184 c 0 -10 -6.4 -16 -16.8 -16 h -49.2 c -2.4 0 -4 -1.6 -4 -4 s 1.6 -4 4 -4 h 49.2 c 15.2 0 24.8 9.6 24.8 24 v 184 C 435.6 355.2 424.8 367.6 410.8 367.6 z" style="stroke: none; stroke-width: 1; stroke-dasharray: none; stroke-linecap: butt; stroke-linejoin: miter; stroke-miterlimit: 10; fill: rgb(0,0,0); fill-rule: nonzero; opacity: 1;" transform=" matrix(1 0 0 1 0 0) " stroke-linecap="round" />
  <path d="M 375.6 244.4 c -5.2 0 -10.4 -1.2 -15.2 -3.6 c -2 -0.8 -2.8 -3.2 -2 -5.2 s 3.2 -2.8 5.2 -2 c 3.6 1.6 7.6 2.8 11.6 2.8 c 14.4 0 26 -11.6 26 -26 s -11.6 -26 -26 -26 c -3.6 0 -7.2 0.8 -10.4 2 c -2 0.8 -4.4 0 -5.2 -2 s 0 -4.4 2 -5.2 c 4.4 -2 8.8 -2.8 13.6 -2.8 c 18.8 0 34 15.2 34 34 C 409.6 229.2 394.4 244.4 375.6 244.4 z" style="stroke: none; stroke-width: 1; stroke-dasharray: none; stroke-linecap: butt; stroke-linejoin: miter; stroke-miterlimit: 10; fill: rgb(0,0,0); fill-rule: nonzero; opacity: 1;" transform=" matrix(1 0 0 1 0 0) " stroke-linecap="round" />
  <path d="M 167.6 323.6 h -64 c -2.4 0 -4 -1.6 -4 -4 v -20 c 0 -2.4 1.6 -4 4 -4 h 64 c 2.4 0 4 1.6 4 4 v 20 C 171.6 322 170 323.6 167.6 323.6 z M 107.6 315.6 h 56 v -12 h -56 V 315.6 z" style="stroke: none; stroke-width: 1; stroke-dasharray: none; stroke-linecap: butt; stroke-linejoin: miter; stroke-miterlimit: 10; fill: rgb(0,0,0); fill-rule: nonzero; opacity: 1;" transform=" matrix(1 0 0 1 0 0) " stroke-linecap="round" />
  <path d="M 247.6 323.6 h -64 c -2.4 0 -4 -1.6 -4 -4 v -20 c 0 -2.4 1.6 -4 4 -4 h 64 c 2.4 0 4 1.6 4 4 v 20 C 251.6 322 250 323.6 247.6 323.6 z M 187.6 315.6 h 56 v -12 h -56 V 315.6 z" style="stroke: none; stroke-width: 1; stroke-dasharray: none; stroke-linecap: butt; stroke-linejoin: miter; stroke-miterlimit: 10; fill: rgb(0,0,0); fill-rule: nonzero; opacity: 1;" transform=" matrix(1 0 0 1 0 0) " stroke-linecap="round" />
  <path d="M 323.6 323.6 h -64 c -2.4 0 -4 -1.6 -4 -4 v -20 c 0 -2.4 1.6 -4 4 -4 h 64 c 2.4 0 4 1.6 4 4 v 20 C 327.6 322 326 323.6 323.6 323.6 z M 263.6 315.6 h 56 v -12 h -56 V 315.6 z" style="stroke: none; stroke-width: 1; stroke-dasharray: none; stroke-linecap: butt; stroke-linejoin: miter; stroke-miterlimit: 10; fill: rgb(0,0,0); fill-rule: nonzero; opacity: 1;" transform=" matrix(1 0 0 1 0 0) " stroke-linecap="round" />
  <path d="M 403.6 323.6 h -64 c -2.4 0 -4 -1.6 -4 -4 v -20 c 0 -2.4 1.6 -4 4 -4 h 64 c 2.4 0 4 1.6 4 4 v 20 C 407.6 322 406 323.6 403.6 323.6 z M 343.6 315.6 h 56 v -12 h -56 V 315.6 z" style="stroke: none; stroke-width: 1; stroke-dasharray: none; stroke-linecap: butt; stroke-linejoin: miter; stroke-miterlimit: 10; fill: rgb(0,0,0); fill-rule: nonzero; opacity: 1;" transform=" matrix(1 0 0 1 0 0) " stroke-linecap="round" />
  <path d="M 474 435.6 H 163.2 c -14.8 0 -27.6 -13.2 -27.6 -28.4 v -41.6 c 0 -2.4 1.6 -4 4 -4 s 4 1.6 4 4 v 41.6 c 0 10.8 9.2 20.4 19.6 20.4 H 474 c 10.8 0 17.6 -10.4 17.6 -20.4 v -184 c 0 -10 -6.4 -15.6 -17.6 -15.6 h -40.4 c -2.4 0 -4 -1.6 -4 -4 s 1.6 -4 4 -4 H 474 c 15.6 0 25.6 9.2 25.6 23.6 v 184 C 499.6 422.8 488 435.6 474 435.6 z" style="stroke: none; stroke-width: 1; stroke-dasharray: none; stroke-linecap: butt; stroke-linejoin: miter; stroke-miterlimit: 10; fill: rgb(0,0,0); fill-rule: nonzero; opacity: 1;" transform=" matrix(1 0 0 1 0 0) " stroke-linecap="round" />
  <path d="M 443.2 312 c -3.6 0 -7.2 -0.4 -10.8 -1.6 c -2 -0.8 -3.2 -2.8 -2.4 -5.2 c 0.8 -2 2.8 -3.2 5.2 -2.4 c 2.8 0.8 5.6 1.2 8.4 1.2 c 14.4 0 26 -11.6 26 -26 s -11.6 -26 -26 -26 c -2.8 0 -5.6 0.4 -8.4 1.2 c -2 0.8 -4.4 -0.4 -5.2 -2.4 s 0.4 -4.4 2.4 -5.2 c 3.6 -1.2 7.2 -1.6 10.8 -1.6 c 18.8 0 34 15.2 34 34 C 477.2 296.8 462 312 443.2 312 z" style="stroke: none; stroke-width: 1; stroke-dasharray: none; stroke-linecap: butt; stroke-linejoin: miter; stroke-miterlimit: 10; fill: rgb(0,0,0); fill-rule: nonzero; opacity: 1;" transform=" matrix(1 0 0 1 0 0) " stroke-linecap="round" />
  <path d="M 235.6 387.6 h -64 c -2.4 0 -4 -1.6 -4 -4 v -20 c 0 -2.4 1.6 -4 4 -4 h 64 c 2.4 0 4 1.6 4 4 v 20 C 239.6 386 238 387.6 235.6 387.6 z M 175.6 379.6 h 56 v -12 h -56 V 379.6 z" style="stroke: none; stroke-width: 1; stroke-dasharray: none; stroke-linecap: butt; stroke-linejoin: miter; stroke-miterlimit: 10; fill: rgb(0,0,0); fill-rule: nonzero; opacity: 1;" transform=" matrix(1 0 0 1 0 0) " stroke-linecap="round" />
  <path d="M 311.6 387.6 h -64 c -2.4 0 -4 -1.6 -4 -4 v -20 c 0 -2.4 1.6 -4 4 -4 h 64 c 2.4 0 4 1.6 4 4 v 20 C 315.6 386 314 387.6 311.6 387.6 z M 251.6 379.6 h 56 v -12 h -56 V 379.6 z" style="stroke: none; stroke-width: 1; stroke-dasharray: none; stroke-linecap: butt; stroke-linejoin: miter; stroke-miterlimit: 10; fill: rgb(0,0,0); fill-rule: nonzero; opacity: 1;" transform=" matrix(1 0 0 1 0 0) " stroke-linecap="round" />
  <path d="M 391.6 387.6 h -64 c -2.4 0 -4 -1.6 -4 -4 v -20 c 0 -2.4 1.6 -4 4 -4 h 64 c 2.4 0 4 1.6 4 4 v 20 C 395.6 386 394 387.6 391.6 387.6 z M 331.6 379.6 h 56 v -12 h -56 V 379.6 z" style="stroke: none; stroke-width: 1; stroke-dasharray: none; stroke-linecap: butt; stroke-linejoin: miter; stroke-miterlimit: 10; fill: rgb(0,0,0); fill-rule: nonzero; opacity: 1;" transform=" matrix(1 0 0 1 0 0) " stroke-linecap="round" />
  <path d="M 471.6 387.6 h -64 c -2.4 0 -4 -1.6 -4 -4 v -20 c 0 -2.4 1.6 -4 4 -4 h 64 c 2.4 0 4 1.6 4 4 v 20 C 475.6 386 474 387.6 471.6 387.6 z M 411.6 379.6 h 56 v -12 h -56 V 379.6 z" style="stroke: none; stroke-width: 1; stroke-dasharray: none; stroke-linecap: butt; stroke-linejoin: miter; stroke-miterlimit: 10; fill: rgb(0,0,0); fill-rule: nonzero; opacity: 1;" transform=" matrix(1 0 0 1 0 0) " stroke-linecap="round" />
</g>
  <g transform="translate(386.16 73.95) scale(1.5 1.5)">
   <text font-family="Grand Hotel" font-size="40" font-weight="bold" style="stroke: none; stroke-width: 1; stroke-dasharray: none; stroke-linecap: butt; stroke-linejoin: miter; stroke-miterlimit: 10; fill: #000000; fill-rule: nonzero; opacity: 1;" ><tspan x="-18.94" y="8.98" style="stroke: none; stroke-width: 0; stroke-dasharray: none; stroke-linecap: butt; stroke-linejoin: miter; stroke-miterlimit: 4; fill: #000000; fill-rule: ; opacity: 1;">a</tspan><tspan x="-4" y="8.98" style="stroke: none; stroke-width: 0; stroke-dasharray: none; stroke-linecap: butt; stroke-linejoin: miter; stroke-miterlimit: 4; fill: #000000; fill-rule: ; opacity: 1;">i</tspan><tspan x="3.71" y="8.98" style="stroke: none; stroke-width: 0; stroke-dasharray: none; stroke-linecap: butt; stroke-linejoin: miter; stroke-miterlimit: 4; fill: #000000; fill-rule: ; opacity: 1;">n</tspan></text>
 </g>
  <g transform="translate(378.5 103.89)">
   <text font-family="ADAMCG PRO" font-size="40" font-weight="normal" style="stroke: none; stroke-width: 1; stroke-dasharray: none; stroke-linecap: butt; stroke-linejoin: miter; stroke-miterlimit: 10; fill: #000000; fill-rule: nonzero; opacity: 1;" ><tspan x="0" y="8.98" fill="#000000"></tspan></text>
 </g>
</svg>